<?xml version="1.0" encoding="utf-8"?>
<!-- Generator: Adobe Illustrator 25.4.1, SVG Export Plug-In . SVG Version: 6.00 Build 0)  -->
<svg version="1.1" id="Layer_1" xmlns="http://www.w3.org/2000/svg" xmlns:xlink="http://www.w3.org/1999/xlink" x="0px" y="0px"
	 viewBox="0 0 16 16" style="enable-background:new 0 0 16 16;" xml:space="preserve">
<style type="text/css">
	.st0{fill:#0C8B44;}
	.st1{fill:#006432;}
	.st2{fill:#005028;}
</style>
<path d="M14.2,3.5L8,1L1.8,3.5L8,6L14.2,3.5z M15,4.2L8.5,6.8v7.9l6.5-2.6V4.2L15,4.2z M7.5,14.8V6.8L1,4.2v7.9L7.5,14.8z M7.6,0.1
	C7.9,0,8.1,0,8.4,0.1L16,3.2v9.3c0,0.2-0.1,0.4-0.3,0.5L8,16L0.3,13C0.1,12.9,0,12.7,0,12.5V3.2L7.6,0.1z"/>
<polygon class="st0" points="1,4.2 7.5,6.8 7.5,14.8 1,12.2 "/>
<polygon class="st1" points="8.5,6.8 15,4.2 15,12.2 8.5,14.8 "/>
<polygon class="st2" points="8,6 14.2,3.5 8,1 1.8,3.5 "/>
</svg>
